<?xml version="1.0" encoding="UTF-8" standalone="no"?>
<!DOCTYPE svg PUBLIC "-//W3C//DTD SVG 1.1//EN" "http://www.w3.org/Graphics/SVG/1.1/DTD/svg11.dtd">
<svg width="100%" height="100%" viewBox="0 0 18 18" version="1.1" xmlns="http://www.w3.org/2000/svg" xmlns:xlink="http://www.w3.org/1999/xlink" xml:space="preserve" xmlns:serif="http://www.serif.com/" style="fill-rule:evenodd;clip-rule:evenodd;stroke-linejoin:round;stroke-miterlimit:2;">
    <g transform="matrix(1,0,0,1,-3,-3)">
        <path d="M3,3L3,18C3,19.646 4.354,21 6,21L18,21C19.646,21 21,19.646 21,18L21,3L3,3ZM16,4.75C16.686,4.75 17.25,5.314 17.25,6C17.25,6.686 16.686,7.25 16,7.25C15.314,7.25 14.75,6.686 14.75,6C14.75,5.314 15.314,4.75 16,4.75ZM8,4.75C8.686,4.75 9.25,5.314 9.25,6C9.25,6.686 8.686,7.25 8,7.25C7.314,7.25 6.75,6.686 6.75,6C6.75,5.314 7.314,4.75 8,4.75ZM19,18C19,18.549 18.549,19 18,19L6,19C5.451,19 5,18.549 5,18L5,9L19,9L19,18ZM13.1,15C13.1,14.451 12.649,14 12.1,14L12,14C11.658,14.011 11.32,14.079 11,14.2L10,14L10,11L13.9,11L13.9,12L11,12L11,13.15C11.341,13.05 11.695,12.999 12.05,13C12.088,12.998 12.125,12.997 12.163,12.997C13.16,12.997 13.994,13.785 14.05,14.78L14.05,15C14.051,15.027 14.052,15.054 14.052,15.082C14.052,16.105 13.233,16.958 12.21,17L12,17C10.972,17.068 10.069,16.278 10,15.25C9.99,15.167 9.99,15.083 10,15L11,15C10.995,15.039 10.992,15.078 10.992,15.118C10.992,15.606 11.394,16.008 11.882,16.008C11.922,16.008 11.961,16.005 12,16L12.1,16C12.121,16.001 12.141,16.002 12.162,16.002C12.656,16.002 13.07,15.613 13.1,15.12L13.1,15Z" style="fill:rgb(231,163,62);fill-rule:nonzero;"/>
    </g>
</svg>
