<?xml version="1.0" encoding="UTF-8" standalone="no"?>
<!DOCTYPE svg PUBLIC "-//W3C//DTD SVG 1.1//EN" "http://www.w3.org/Graphics/SVG/1.1/DTD/svg11.dtd">
<svg width="100%" height="100%" viewBox="0 0 51 38" version="1.1" xmlns="http://www.w3.org/2000/svg" xmlns:xlink="http://www.w3.org/1999/xlink" xml:space="preserve" xmlns:serif="http://www.serif.com/" style="fill-rule:evenodd;clip-rule:evenodd;stroke-linejoin:round;stroke-miterlimit:2;">
    <g transform="matrix(1,0,0,1,-11.4869,-5.34483)">
        <g transform="matrix(0.722247,0,0,0.829119,10.138,4.10115)">
            <path d="M46.868,24C46.868,36.426 36.794,46.5 24.368,46.5C11.941,46.5 1.868,36.426 1.868,24C1.868,11.574 11.941,1.5 24.368,1.5C36.794,1.5 46.868,11.574 46.868,24Z" style="fill:rgb(104,219,255);fill-rule:nonzero;"/>
        </g>
        <g transform="matrix(0.722247,0,0,0.829119,10.138,4.10115)">
            <path d="M71.132,24C71.132,36.426 61.157,46.5 48.853,46.5C36.548,46.5 26.574,36.426 26.574,24C26.574,11.574 36.548,1.5 48.853,1.5C61.157,1.5 71.132,11.574 71.132,24Z" style="fill:rgb(255,121,23);fill-rule:nonzero;"/>
        </g>
        <g transform="matrix(0.722247,0,0,0.829119,10.138,4.10115)">
            <path d="M36.67,42.842C42.811,38.824 46.868,31.886 46.868,24C46.868,16.114 42.811,9.176 36.67,5.159C30.59,9.176 26.574,16.114 26.574,24C26.574,31.886 30.59,38.824 36.67,42.842Z" style="fill:rgb(93,44,2);fill-rule:nonzero;"/>
        </g>
    </g>
</svg>
